<svg width="18" height="18" viewBox="0 0 18 18" fill="none" xmlns="http://www.w3.org/2000/svg">
<path fill-rule="evenodd" clip-rule="evenodd" d="M8.99935 17.3334C4.39698 17.3334 0.666016 13.6024 0.666016 9.00002C0.666016 4.39765 4.39698 0.666687 8.99935 0.666687C13.6017 0.666687 17.3327 4.39765 17.3327 9.00002C17.3327 13.6024 13.6017 17.3334 8.99935 17.3334ZM8.99935 2.33335C5.31745 2.33335 2.33268 5.31812 2.33268 9.00002C2.33268 12.6819 5.31745 15.6667 8.99935 15.6667C12.6812 15.6667 15.666 12.6819 15.666 9.00002C15.666 5.31812 12.6812 2.33335 8.99935 2.33335ZM8.15625 6.50002C8.15625 6.03978 8.52935 5.66669 8.98958 5.66669C9.44982 5.66669 9.82292 6.03978 9.82292 6.50002V8.16669H11.4896C11.9498 8.16669 12.3229 8.53978 12.3229 9.00002C12.3229 9.46026 11.9498 9.83335 11.4896 9.83335H9.82292V11.5C9.82292 11.9603 9.44982 12.3334 8.98958 12.3334C8.52935 12.3334 8.15625 11.9603 8.15625 11.5V9.83335H6.48958C6.02935 9.83335 5.65625 9.46026 5.65625 9.00002C5.65625 8.53978 6.02935 8.16669 6.48958 8.16669H8.15625V6.50002Z" fill="#637381"/>
</svg>
