<svg width="16" height="18" viewBox="0 0 16 18" fill="none" xmlns="http://www.w3.org/2000/svg">
<path d="M8 0.833313C6.91333 0.833313 5.99716 1.53081 5.653 2.49998H2.16667C1.24583 2.49998 0.5 3.24581 0.5 4.16665V15.8333C0.5 16.7541 1.24583 17.5 2.16667 17.5H13.8333C14.7542 17.5 15.5 16.7541 15.5 15.8333V4.16665C15.5 3.24581 14.7542 2.49998 13.8333 2.49998H10.347C10.0028 1.53081 9.08667 0.833313 8 0.833313H8ZM8 2.49998C8.46 2.49998 8.83333 2.87331 8.83333 3.33331C8.83333 3.79331 8.46 4.16665 8 4.16665H13.8333V15.8333H2.16667V4.16665H8C7.54 4.16665 7.16667 3.79331 7.16667 3.33331C7.16667 2.87331 7.54 2.49998 8 2.49998H8ZM3.83333 5.83331V7.49998H12.1667V5.83331H3.83333ZM3.83333 9.16665V10.8333H10.5V9.16665H3.83333ZM3.83333 12.5V14.1666H12.1667V12.5H3.83333Z" fill="white"/>
</svg>
