<svg width="172" height="137" viewBox="0 0 172 137" fill="none" xmlns="http://www.w3.org/2000/svg">
<path d="M99.76 0.587524C81.8209 0.587524 66.6366 11.3241 59.34 26.495C55.4566 23.821 50.955 21.8725 45.9025 21.8725C33.0831 21.8725 22.8572 32.0178 22.145 44.6625C9.32563 49.285 0 61.2444 0 75.6225C0 93.9513 14.8887 108.84 33.2175 108.84H61.92C63.1562 108.853 64.3119 108.208 64.9434 107.133C65.5616 106.058 65.5616 104.742 64.9434 103.667C64.3119 102.592 63.1562 101.947 61.92 101.96H33.2175C18.5975 101.96 6.88 90.2291 6.88 75.6225C6.88 63.4616 15.0769 53.2222 26.23 50.145C27.7484 49.7016 28.7697 48.2772 28.7025 46.705C28.6891 46.2213 28.7025 45.9794 28.7025 45.9525C28.7025 36.3985 36.3484 28.7525 45.9025 28.7525C50.6862 28.7525 55.04 30.6741 58.1575 33.805C58.9772 34.5978 60.1462 34.9472 61.2616 34.7053C62.3903 34.4635 63.3175 33.6841 63.7475 32.6225C69.1628 18.0025 83.2184 7.46754 99.76 7.46754C120.991 7.46754 138.137 24.6272 138.137 45.845C138.137 47.4172 138.017 48.9625 137.815 50.575C137.694 51.5425 137.99 52.51 138.621 53.2491C139.253 53.9882 140.18 54.4182 141.148 54.445H141.363C154.518 54.445 165.12 65.0472 165.12 78.2025C165.12 91.3578 154.518 101.96 141.363 101.96H110.08C108.844 101.947 107.688 102.592 107.057 103.667C106.438 104.742 106.438 106.058 107.057 107.133C107.688 108.208 108.844 108.853 110.08 108.84H141.363C158.24 108.84 172 95.08 172 78.2025C172 62.5478 159.987 50.1047 144.803 48.3175C144.856 47.4844 145.018 46.705 145.018 45.845C145.018 20.905 124.7 0.587524 99.76 0.587524ZM86 59.2825L83.5275 61.6475L66.3275 78.8475C64.9569 80.2182 64.9569 82.4219 66.3275 83.7925C67.6981 85.1632 69.9019 85.1632 71.2725 83.7925L82.56 72.505V132.92C82.5466 134.156 83.1916 135.312 84.2666 135.943C85.3416 136.562 86.6584 136.562 87.7334 135.943C88.8084 135.312 89.4534 134.156 89.44 132.92V72.505L100.727 83.7925C102.098 85.1632 104.302 85.1632 105.672 83.7925C107.043 82.4219 107.043 80.2182 105.672 78.8475L88.4725 61.6475L86 59.2825Z" fill="#637381"/>
</svg>
