<svg width="48" height="31" viewBox="0 0 48 31" fill="none" xmlns="http://www.w3.org/2000/svg">
<path d="M48 19C48 25.63 42.63 31 36 31C34.2 31 11.34 31 9.5 31C4.25 31 0 26.75 0 21.5C0 16.96 3.18 13.16 7.45 12.22C9.15 5.21 15.46 0 23 0C28.51 0 33.36 2.78 36.24 7.01C42.76 7.13 48 12.45 48 19L48 19Z" fill="url(#paint0_linear_3230_8339)"/>
<path opacity="0.05" d="M20.9991 17.441V24.441C20.9991 25.546 21.8941 26.441 22.9991 26.441H24.9991C26.1041 26.441 26.9991 25.546 26.9991 24.441V17.441H29.6471C30.9831 17.441 31.6531 15.825 30.7081 14.88L25.4131 9.58502C24.6321 8.80402 23.3661 8.80402 22.5851 9.58502L17.2901 14.88C16.3451 15.825 17.0141 17.441 18.3511 17.441H20.9991Z" fill="black"/>
<path opacity="0.07" d="M21.4992 16.941V24.441C21.4992 25.269 22.1712 25.941 22.9992 25.941H24.9992C25.8272 25.941 26.4992 25.269 26.4992 24.441V16.941H29.5202C30.4582 16.941 30.9282 15.807 30.2652 15.143L25.1362 10.013C24.5092 9.38597 23.4922 9.38597 22.8652 10.013L17.7362 15.143C17.0732 15.806 17.5422 16.941 18.4812 16.941H21.4992Z" fill="black"/>
<path d="M18.607 16.441H22V24.441C22 24.993 22.448 25.441 23 25.441H25C25.552 25.441 26 24.993 26 24.441V16.441H29.393C29.933 16.441 30.203 15.788 29.821 15.407L24.857 10.443C24.384 9.97001 23.616 9.97001 23.143 10.443L18.179 15.407C17.797 15.788 18.067 16.441 18.607 16.441Z" fill="white"/>
<defs>
<linearGradient id="paint0_linear_3230_8339" x1="14.242" y1="1.358" x2="30.172" y2="31.695" gradientUnits="userSpaceOnUse">
<stop stop-color="#2AA4F4"/>
<stop offset="1" stop-color="#007AD9"/>
</linearGradient>
</defs>
</svg>
