<svg width="21" height="21" viewBox="0 0 21 21" fill="none" xmlns="http://www.w3.org/2000/svg">
<path d="M9 0C7.35503 0 6 1.35503 6 3H2C0.906936 3 0 3.90694 0 5V11H2C2.56503 11 3 11.435 3 12C3 12.565 2.56503 13 2 13H0V19C0 20.0931 0.906938 21 2 21H8V19C8 18.435 8.43497 18 9 18C9.56503 18 10 18.435 10 19V21H16C17.0931 21 18 20.0931 18 19V15C19.645 15 21 13.645 21 12C21 10.355 19.645 9 18 9V5C18 3.90694 17.0931 3 16 3H12C12 1.35503 10.645 0 9 0ZM9 2C9.56503 2 10 2.43497 10 3V5H16V11H18C18.565 11 19 11.435 19 12C19 12.565 18.565 13 18 13H16V19H12C12 17.355 10.645 16 9 16C7.35503 16 6 17.355 6 19H2V15C3.64497 15 5 13.645 5 12C5 10.355 3.64497 9 2 9V5H8V3C8 2.43497 8.43497 2 9 2Z" fill="#637381"/>
</svg>
