<svg width="20" height="20" viewBox="0 0 20 20" fill="none" xmlns="http://www.w3.org/2000/svg">
<path d="M15.8327 7.49999C15.3169 7.50144 14.8142 7.66239 14.3935 7.96077C13.9727 8.25915 13.6546 8.68036 13.4827 9.16666H2.49935C2.27834 9.16666 2.06637 9.25445 1.91009 9.41073C1.75381 9.56701 1.66602 9.77898 1.66602 9.99999C1.66602 10.221 1.75381 10.433 1.91009 10.5892C2.06637 10.7455 2.27834 10.8333 2.49935 10.8333H13.4827C13.6356 11.2657 13.9044 11.6477 14.2599 11.9376C14.6153 12.2274 15.0437 12.4138 15.498 12.4765C15.9523 12.5392 16.4151 12.4757 16.8358 12.293C17.2564 12.1102 17.6187 11.8153 17.883 11.4405C18.1472 11.0656 18.3033 10.6253 18.3341 10.1677C18.3648 9.71014 18.2691 9.2529 18.0575 8.84605C17.8458 8.4392 17.5262 8.09842 17.1338 7.86101C16.7415 7.6236 16.2913 7.4987 15.8327 7.49999ZM2.49935 5.83332H3.48268C3.65785 6.31595 3.97737 6.73294 4.39782 7.02762C4.81827 7.3223 5.31925 7.48039 5.83268 7.48039C6.34612 7.48039 6.8471 7.3223 7.26754 7.02762C7.68799 6.73294 8.00751 6.31595 8.18268 5.83332H17.4993C17.7204 5.83332 17.9323 5.74553 18.0886 5.58924C18.2449 5.43296 18.3327 5.221 18.3327 4.99999C18.3327 4.77898 18.2449 4.56701 18.0886 4.41073C17.9323 4.25445 17.7204 4.16666 17.4993 4.16666H8.18268C8.00751 3.68403 7.68799 3.26704 7.26754 2.97236C6.8471 2.67768 6.34612 2.51959 5.83268 2.51959C5.31925 2.51959 4.81827 2.67768 4.39782 2.97236C3.97737 3.26704 3.65785 3.68403 3.48268 4.16666H2.49935C2.27834 4.16666 2.06637 4.25445 1.91009 4.41073C1.75381 4.56701 1.66602 4.77898 1.66602 4.99999C1.66602 5.221 1.75381 5.43296 1.91009 5.58924C2.06637 5.74553 2.27834 5.83332 2.49935 5.83332ZM17.4993 14.1667H11.516C11.3408 13.684 11.0213 13.267 10.6009 12.9724C10.1804 12.6777 9.67945 12.5196 9.16602 12.5196C8.65258 12.5196 8.1516 12.6777 7.73115 12.9724C7.31071 13.267 6.99119 13.684 6.81602 14.1667H2.49935C2.27834 14.1667 2.06637 14.2545 1.91009 14.4107C1.75381 14.567 1.66602 14.779 1.66602 15C1.66602 15.221 1.75381 15.433 1.91009 15.5892C2.06637 15.7455 2.27834 15.8333 2.49935 15.8333H6.81602C6.99119 16.3159 7.31071 16.7329 7.73115 17.0276C8.1516 17.3223 8.65258 17.4804 9.16602 17.4804C9.67945 17.4804 10.1804 17.3223 10.6009 17.0276C11.0213 16.7329 11.3408 16.3159 11.516 15.8333H17.4993C17.7204 15.8333 17.9323 15.7455 18.0886 15.5892C18.2449 15.433 18.3327 15.221 18.3327 15C18.3327 14.779 18.2449 14.567 18.0886 14.4107C17.9323 14.2545 17.7204 14.1667 17.4993 14.1667Z" fill="#3366FF"/>
</svg>
