<svg width="20" height="12" viewBox="0 0 20 12" fill="none" xmlns="http://www.w3.org/2000/svg">
<path d="M5.83333 0.166504C2.62139 0.166504 0 2.78789 0 5.99984C0 9.21178 2.62139 11.8332 5.83333 11.8332C8.13982 11.8332 10.0852 10.4531 11.0286 8.49984H13.3333V10.9998H18.3333V8.49984H20V3.49984H19.1667H11.0286C10.0852 1.5466 8.13982 0.166504 5.83333 0.166504H5.83333ZM5.83333 1.83317C7.65362 1.83317 9.18571 2.99539 9.75749 4.61149L9.9528 5.1665H18.3333V6.83317H16.6667V9.33317H15V6.83317H9.9528L9.75749 7.38818C9.18571 9.00428 7.65362 10.1665 5.83333 10.1665C3.52195 10.1665 1.66667 8.31123 1.66667 5.99984C1.66667 3.68845 3.52195 1.83317 5.83333 1.83317V1.83317ZM5.83333 3.49984C4.46249 3.49984 3.33333 4.629 3.33333 5.99984C3.33333 7.37068 4.46249 8.49984 5.83333 8.49984C7.20418 8.49984 8.33333 7.37068 8.33333 5.99984C8.33333 4.629 7.20418 3.49984 5.83333 3.49984ZM5.83333 5.1665C6.30344 5.1665 6.66667 5.52973 6.66667 5.99984C6.66667 6.46994 6.30344 6.83317 5.83333 6.83317C5.36323 6.83317 5 6.46995 5 5.99984C5 5.52973 5.36323 5.1665 5.83333 5.1665Z" fill="#637381"/>
</svg>
