<svg width="20" height="20" viewBox="0 0 20 20" fill="none" xmlns="http://www.w3.org/2000/svg">
<path d="M8.40625 0C4.10547 0 1 2.80078 1 9C1 12.3984 2.80078 18.5 0 20H2.3125C3.21094 18.6016 3.09375 16.6875 3.09375 16.6875C3.09375 16.6875 2 15.3008 2 14.5C2 13.1016 3.09375 12.3125 3.09375 12.3125C3.09375 12.3125 2.09375 11.3008 2.09375 9.5C2.09375 8 3.30469 7.3125 3.90625 7.3125C6.10547 7.3125 6.1875 9.90625 6.1875 9.90625H8.3125C8.3125 9.90625 8.20703 7 10.9062 7C11.8047 7 13.4062 7.80469 13.4062 9.90625C13.4062 11.1055 13 11.8125 13 11.8125C13 11.8125 14.4062 12.5117 14.4062 13.8125C14.4062 15.1133 13.4062 16.0938 13.4062 16.0938L15 19.8125H20C20 20.0117 17 18.8008 17 9C17 8.30079 17.207 2.79449e-06 8.40625 2.79449e-06L8.40625 0ZM11.7812 2C12.043 2 12.3437 2.11328 12.5937 2.3125C13.0937 2.71094 13.3867 3.19531 13.1875 3.59375C12.9883 3.99219 12.3125 3.99219 11.8125 3.59375C11.3125 3.19531 10.8867 2.71094 11.1875 2.3125C11.2891 2.11328 11.5195 2 11.7812 2ZM4.09375 8.90625C3.59375 9.00782 3 9.39844 3 10.5C3 11.5 4.3125 12.4063 4.3125 12.4063C4.3125 12.4063 2.5 13.1992 2.5 14.5C2.5 15.1992 3.30078 15.9922 4 16.5938C4.69922 17.1953 5.70703 18.3125 6.90625 18.3125C8.70703 18.3125 10.1992 16.8984 11 16.5C11.8008 16 13.4062 15.1953 13.4062 14.0938C13.4062 12.793 10.9062 12.4063 10.9062 12.4063C10.9062 12.4063 12.0937 11.9883 12.0937 10.6875C12.0937 9.78907 11.5117 9.09376 10.8125 9.09376C9.71094 9.09376 9.40625 10.0859 9.40625 10.6875C9.40625 11.2891 9.6875 11.9063 9.6875 11.9063C9.6875 11.9063 8.5 11 7 11C6.19922 11 5.3125 11.5 5.3125 11.5C5.3125 11.5 5.40625 11.0938 5.40625 10.5938C5.40625 10.0938 5.09375 8.90626 4.09375 8.90626L4.09375 8.90625ZM7.75 11.75C7.91797 11.7461 8.36719 11.8516 8.59375 12C8.79297 12.1016 8.69531 12.5938 8.59375 12.5938C8.39453 12.6953 7.6875 12.0117 7.6875 11.8125C7.66406 11.7891 7.69531 11.75 7.75 11.75H7.75ZM6.3125 11.8125C6.61328 11.8125 6.30078 12.293 6 12.5938C5.89844 12.6953 5.5 12.3125 5.5 12.3125C5.5 12.1133 5.91406 11.8125 6.3125 11.8125L6.3125 11.8125ZM12.5 14C12.5 14 9.5 17 7 17C4.89844 17 3.09375 14.6875 3.09375 14.6875C3.09375 14.6875 5.10156 16 7 16C9.10156 16 12.5 14 12.5 14Z" fill="#637381"/>
</svg>
