<svg width="18" height="18" viewBox="0 0 18 18" fill="none" xmlns="http://www.w3.org/2000/svg">
<path d="M9.24917 17.3333H9.16583C8.02294 17.3246 6.89327 17.088 5.84297 16.6372C4.79267 16.1865 3.84287 15.5307 3.04917 14.7083C1.57737 13.1344 0.740735 11.0711 0.700723 8.9166C0.660711 6.76211 1.42016 4.66916 2.8325 3.04167C3.7424 2.02195 4.88628 1.2384 6.16583 0.758333C6.31514 0.700882 6.47782 0.687619 6.63445 0.720128C6.79109 0.752638 6.93506 0.829545 7.04917 0.941667C7.15485 1.04944 7.22927 1.18388 7.2645 1.33065C7.29972 1.47742 7.29443 1.63101 7.24917 1.775C6.79246 3.02578 6.70198 4.38087 6.98833 5.68127C7.27468 6.98166 7.926 8.17341 8.86583 9.11667C9.81444 10.0536 11.009 10.7027 12.3113 10.9888C13.6135 11.275 14.9702 11.1864 16.2242 10.7333C16.3734 10.6808 16.5346 10.6718 16.6887 10.7075C16.8429 10.7432 16.9837 10.822 17.0947 10.9348C17.2057 11.0475 17.2823 11.1895 17.3156 11.3442C17.3488 11.4989 17.3374 11.6599 17.2825 11.8083C16.8568 12.9448 16.1918 13.9764 15.3325 14.8333C14.5332 15.6303 13.5843 16.2614 12.5403 16.6904C11.4963 17.1194 10.3779 17.3379 9.24917 17.3333Z" fill="#212B36"/>
</svg>
