<svg width="19" height="20" viewBox="0 0 19 20" fill="none" xmlns="http://www.w3.org/2000/svg">
<path d="M12.9844 0C11.9204 0.114 10.7509 0.795078 10.0059 1.70508C9.36787 2.50008 8.83584 3.75 9.04884 5C10.1118 5 11.2814 4.20492 12.0254 3.29492C12.6644 2.38592 13.0904 1.25 12.9844 0V0ZM5.35353 5C3.72853 5 1.98933 5.978 0.945325 7.5C-0.562675 9.674 -0.330519 13.8042 2.10548 17.2832C3.03348 18.5872 4.19318 20 5.70119 20C7.09319 20 7.44184 19.1309 9.29884 19.1309C11.1548 19.1309 11.5035 20 12.8965 20C14.5205 20 15.6804 18.4778 16.6094 17.1738C17.3054 16.3038 17.538 15.7612 18.002 14.7832C14.405 13.4792 13.8237 8.80503 17.3047 6.95703C16.1437 5.76103 14.6352 5 13.2422 5C11.3862 5 10.5758 6 9.29884 6C8.02184 6 6.97853 5 5.35353 5L5.35353 5ZM5.35353 7C5.82753 7 6.26628 7.17739 6.82228 7.40039C7.48628 7.66739 8.31084 8 9.29884 8C10.2848 8 11.0539 7.67316 11.6719 7.41016C12.2309 7.17216 12.6352 7 13.2422 7C13.5102 7 13.8007 7.05516 14.0957 7.16016C13.2937 8.28716 12.8903 9.65403 12.9902 11.082C13.1152 12.864 13.9701 14.4498 15.3301 15.5488C15.2471 15.6668 15.1559 15.7888 15.0469 15.9238L15.0117 15.9688L14.9785 16.0137C14.5205 16.6587 13.5645 18 12.8945 18C12.6905 18 12.5945 17.9642 12.1895 17.7832C11.6035 17.5232 10.7178 17.1309 9.29884 17.1309C7.87984 17.1309 6.99322 17.5232 6.40822 17.7832C6.00222 17.9642 5.90518 18 5.70118 18C5.28218 18 4.62115 17.3678 3.74415 16.1348C1.77215 13.3198 1.60972 10.0519 2.59571 8.63086C3.25471 7.67086 4.38853 7 5.35353 7L5.35353 7Z" fill="#637381"/>
</svg>
