<svg width="14" height="18" viewBox="0 0 14 18" fill="none" xmlns="http://www.w3.org/2000/svg">
<path d="M7.00065 0.666687C6.31065 0.666687 5.75065 1.22669 5.75065 1.91669V2.49611C3.59497 3.05177 2.00065 5.00402 2.00065 7.33335V12.3334L0.333984 14V14.8334H5.55859C5.41185 15.0866 5.33438 15.374 5.33398 15.6667C5.33398 16.5872 6.08017 17.3334 7.00065 17.3334C7.92112 17.3334 8.66732 16.5872 8.66732 15.6667C8.66642 15.3739 8.58839 15.0864 8.44108 14.8334H13.6673V14L12.0006 12.3334V7.33335C12.0006 5.00402 10.4063 3.05177 8.25065 2.49611V1.91669C8.25065 1.22669 7.69065 0.666687 7.00065 0.666687ZM7.00065 4.00002C8.83898 4.00002 10.334 5.49502 10.334 7.33336V12.3334V13.0235L10.4772 13.1667H3.52409L3.66732 13.0235V12.3334V7.33336C3.66732 5.49502 5.16232 4.00002 7.00065 4.00002H7.00065Z" fill="#637381"/>
</svg>
