<svg width="14" height="14" viewBox="0 0 14 14" fill="none" xmlns="http://www.w3.org/2000/svg">
<path d="M12.834 6.16665H7.83398V1.16665C7.83398 0.706409 7.46089 0.333313 7.00065 0.333313C6.54041 0.333313 6.16732 0.706409 6.16732 1.16665V6.16665H1.16732C0.70708 6.16665 0.333984 6.53974 0.333984 6.99998C0.333984 7.46022 0.70708 7.83331 1.16732 7.83331H6.16732V12.8333C6.16732 13.2935 6.54041 13.6666 7.00065 13.6666C7.46089 13.6666 7.83398 13.2935 7.83398 12.8333V7.83331H12.834C13.2942 7.83331 13.6673 7.46022 13.6673 6.99998C13.6673 6.53974 13.2942 6.16665 12.834 6.16665Z" fill="white"/>
</svg>
