<svg width="20" height="20" viewBox="0 0 20 20" fill="none" xmlns="http://www.w3.org/2000/svg">
<path d="M14.709 5.29164C13.3507 3.93331 11.4257 3.14997 9.30904 3.36664C6.25071 3.67497 3.73404 6.15831 3.39238 9.21664C2.93404 13.2583 6.05904 16.6666 10.0007 16.6666C12.659 16.6666 14.9424 15.1083 16.009 12.8666C16.2757 12.3083 15.8757 11.6666 15.259 11.6666C14.9507 11.6666 14.659 11.8333 14.5257 12.1083C13.584 14.1333 11.3257 15.4166 8.85904 14.8666C7.00904 14.4583 5.51738 12.95 5.12571 11.1C4.42571 7.86664 6.88404 4.99997 10.0007 4.99997C11.384 4.99997 12.6174 5.57497 13.5174 6.48331L12.259 7.74164C11.734 8.26664 12.1007 9.16664 12.8424 9.16664H15.834C16.2924 9.16664 16.6674 8.79164 16.6674 8.33331V5.34164C16.6674 4.59997 15.7674 4.22497 15.2424 4.74997L14.709 5.29164Z" fill="#637381"/>
</svg>
