<svg width="21" height="20" viewBox="0 0 21 20" fill="none" xmlns="http://www.w3.org/2000/svg">
<path d="M15.4994 1.66666V4.16666H12.6445C12.0529 4.16666 11.5037 4.48238 11.2057 4.99348L9.24935 8.34635L7.29297 4.99348C6.99496 4.48238 6.44578 4.16666 5.85417 4.16666H2.16602V5.83332H5.85417L8.28418 9.99999L5.85417 14.1667H2.16602V15.8333H5.85417C6.44578 15.8333 6.99659 15.5176 7.2946 15.0065L9.24935 11.6536L11.2057 15.0081C11.5043 15.5174 12.0529 15.8333 12.6445 15.8333H15.4994V18.3333L18.8327 15L15.4994 11.6667V14.1667H12.6445L12.6429 14.165L10.2145 10.0016L12.6445 5.83332H15.4993V8.33332L18.8327 4.99999L15.4994 1.66666Z" fill="#212B36"/>
</svg>
