<svg width="14" height="14" viewBox="0 0 14 14" fill="none" xmlns="http://www.w3.org/2000/svg">
<path fill-rule="evenodd" clip-rule="evenodd" d="M0.333984 7.00004C0.333984 3.31814 3.31875 0.333374 7.00065 0.333374C8.76876 0.333374 10.4645 1.03575 11.7147 2.286C12.9649 3.53624 13.6673 5.23193 13.6673 7.00004C13.6673 10.6819 10.6825 13.6667 7.00065 13.6667C3.31875 13.6667 0.333984 10.6819 0.333984 7.00004ZM9.00454 8.33339C9.00454 8.15564 8.93355 7.98524 8.80734 7.86006L7.94067 7.00006L8.80734 6.14006C9.06875 5.87865 9.06875 5.45481 8.80734 5.19339C8.54592 4.93198 8.12209 4.93198 7.86067 5.19339L7.00067 6.06006L6.14067 5.19339C5.87926 4.93198 5.45542 4.93198 5.194 5.19339C4.93259 5.45481 4.93259 5.87865 5.194 6.14006L6.06067 7.00006L5.194 7.86006C5.0678 7.98524 4.99681 8.15564 4.99681 8.33339C4.99681 8.51115 5.0678 8.68155 5.194 8.80673C5.31918 8.93294 5.48958 9.00393 5.66734 9.00393C5.8451 9.00393 6.01549 8.93294 6.14067 8.80673L7.00067 7.94006L7.86067 8.80673C7.98585 8.93294 8.15625 9.00393 8.33401 9.00393C8.51176 9.00393 8.68216 8.93294 8.80734 8.80673C8.93355 8.68155 9.00454 8.51115 9.00454 8.33339Z" fill="white"/>
</svg>
