<svg width="19" height="18" viewBox="0 0 19 18" fill="none" xmlns="http://www.w3.org/2000/svg">
<path d="M13.9863 0L11.9844 2.00195C11.2522 2.00772 10.6211 2.4087 10.2773 3H5.82617C5.42724 1.81904 4.34443 1 3 1C1.3 1 0 2.3 0 4C0 5.47291 0.977353 6.64268 2.34375 6.92969L4.5625 12H3C1.9 12 1 12.9 1 14V18H18V14C18 12.9 17.1 12 16 12H7.5625L5.03516 6.2207C5.39421 5.89297 5.66492 5.47734 5.82617 5H10.2773C10.6211 5.5913 11.2522 5.99228 11.9844 5.99805L13.9863 8H19V6H14.8145L12.8145 4L14.8145 2H19V2.66142e-06L13.9863 0ZM3 3C3.598 3 4 3.402 4 4C4 4.598 3.598 5 3 5C2.402 5 2 4.598 2 4C2 3.402 2.402 3 3 3ZM3 14H16V16H3V14Z" fill="#637381"/>
</svg>
