<svg width="21" height="21" viewBox="0 0 21 21" fill="none" xmlns="http://www.w3.org/2000/svg">
<path fill-rule="evenodd" clip-rule="evenodd" d="M3.08824 0.5H17.5C19.2056 0.5 20.5882 1.88265 20.5882 3.58824V13.8824C20.5882 15.5879 19.2056 16.9706 17.5 16.9706H6.74265C6.54396 16.9629 6.34732 17.013 6.17647 17.1147L1.55441 19.9147C1.39552 20.009 1.21417 20.0588 1.02941 20.0588C0.852571 20.0583 0.678851 20.0122 0.525 19.925C0.201263 19.743 0.000639979 19.4008 0 19.0294V3.58824C0 1.88265 1.38265 0.5 3.08824 0.5ZM5.14706 8.73529C5.14706 9.30382 5.60794 9.76471 6.17647 9.76471C6.745 9.76471 7.20588 9.30382 7.20588 8.73529C7.20588 8.16677 6.745 7.70588 6.17647 7.70588C5.60794 7.70588 5.14706 8.16677 5.14706 8.73529ZM10.2941 9.76471C9.72559 9.76471 9.26471 9.30382 9.26471 8.73529C9.26471 8.16677 9.72559 7.70588 10.2941 7.70588C10.8626 7.70588 11.3235 8.16677 11.3235 8.73529C11.3235 9.30382 10.8626 9.76471 10.2941 9.76471ZM13.3824 8.73529C13.3824 9.30382 13.8432 9.76471 14.4118 9.76471C14.9803 9.76471 15.4412 9.30382 15.4412 8.73529C15.4412 8.16677 14.9803 7.70588 14.4118 7.70588C13.8432 7.70588 13.3824 8.16677 13.3824 8.73529Z" fill="#212B36"/>
</svg>
