<svg width="64" height="64" viewBox="0 0 64 64" fill="none" xmlns="http://www.w3.org/2000/svg">
<path d="M12.6667 31.9907C5.67067 31.9907 0 36.112 0 40.36V46.5307C0 47.3427 0.657332 48 1.46933 48H24.1813C24.8173 48 25.3333 47.484 25.3333 46.848V40.36C25.3333 36.1133 19.6627 31.9907 12.6667 31.9907H12.6667Z" fill="url(#paint0_linear_996_100132)"/>
<path d="M16.1222 33.176C16.1222 34.4866 14.7409 35.94 12.6676 35.94C10.5942 35.94 9.21289 34.4866 9.21289 33.176C9.21289 31.3546 9.21289 28.316 9.21289 28.316H16.1222C16.1222 28.3146 16.1222 31.3546 16.1222 33.176H16.1222Z" fill="#D6A121"/>
<path d="M12.6489 13.804C9.26754 13.804 5.79688 14.3173 5.79688 21.628C5.79688 22.2133 5.79688 26.1026 5.79688 26.728C5.79688 29.3373 9.90888 32.5346 12.6489 32.5346C15.3889 32.5346 19.5009 29.3373 19.5009 26.728C19.5009 26.1026 19.5009 22.2133 19.5009 21.628C19.5022 14.3173 16.0302 13.804 12.6489 13.804Z" fill="url(#paint1_radial_996_100132)"/>
<path d="M12.6485 13.152C9.33382 13.152 8.84182 14.3973 8.84182 14.3973C7.49382 14.596 5.03516 16.5706 5.03516 18.8266C5.03516 20.0866 5.23649 21.016 5.79649 24.156C6.21116 19.1733 7.50849 17.304 8.84182 17.304C9.80715 17.304 10.5725 18.0653 12.6485 18.0653C14.4018 18.0653 14.8378 17.304 16.4552 17.304C18.7392 17.304 19.5005 23.3706 19.5005 24.156C19.9578 21.864 20.2618 19.9266 20.2618 18.8266C20.2631 16.2173 17.3765 13.152 12.6485 13.152L12.6485 13.152Z" fill="url(#paint2_radial_996_100132)"/>
<path d="M12.8155 12.7373C9.64483 12.7373 8.8435 14.3986 8.8435 14.3986C8.8115 15.2813 9.24083 16.06 9.24083 16.06C9.24083 16.06 9.8195 17.3053 13.1235 17.3053C15.1182 17.3053 17.9768 16.06 17.9768 12.7373C17.9795 12.7373 17.3368 12.7373 12.8155 12.7373V12.7373Z" fill="url(#paint3_radial_996_100132)"/>
<path d="M51.3327 31.9907C44.3367 31.9907 38.666 36.112 38.666 40.36V46.5307C38.666 47.3427 39.3234 48 40.1354 48H62.8473C63.4833 48 63.9993 47.484 63.9993 46.848V40.36C63.9993 36.1133 58.3287 31.9907 51.3327 31.9907H51.3327Z" fill="url(#paint4_linear_996_100132)"/>
<path d="M54.7882 33.176C54.7882 34.4866 53.4069 35.94 51.3336 35.94C49.2602 35.94 47.8789 34.4866 47.8789 33.176C47.8789 31.3546 47.8789 28.316 47.8789 28.316H54.7882C54.7882 28.3146 54.7882 31.3546 54.7882 33.176H54.7882Z" fill="#D6A121"/>
<path d="M51.3168 13.804C47.9355 13.804 44.4648 14.3173 44.4648 21.628C44.4648 22.2133 44.4648 26.1026 44.4648 26.728C44.4648 29.3373 48.5768 32.5346 51.3168 32.5346C54.0568 32.5346 58.1688 29.3373 58.1688 26.728C58.1688 26.1026 58.1688 22.2133 58.1688 21.628C58.1702 14.3173 54.6982 13.804 51.3168 13.804Z" fill="url(#paint5_radial_996_100132)"/>
<path d="M51.3165 13.152C48.0018 13.152 47.5098 14.3973 47.5098 14.3973C46.1618 14.596 43.7031 16.5706 43.7031 18.8266C43.7031 20.0866 43.9045 21.016 44.4645 24.156C44.8791 19.1733 46.1765 17.304 47.5098 17.304C48.4751 17.304 49.2405 18.0653 51.3165 18.0653C53.0698 18.0653 53.5058 17.304 55.1231 17.304C57.4071 17.304 58.1685 23.3706 58.1685 24.156C58.6258 21.864 58.9298 19.9266 58.9298 18.8266C58.9311 16.2173 56.0445 13.152 51.3165 13.152V13.152Z" fill="url(#paint6_radial_996_100132)"/>
<path d="M51.4835 12.7373C48.3128 12.7373 47.5115 14.3986 47.5115 14.3986C47.4795 15.2813 47.9088 16.06 47.9088 16.06C47.9088 16.06 48.4875 17.3053 51.7915 17.3053C53.7861 17.3053 56.6448 16.06 56.6448 12.7373C56.6475 12.7373 56.0048 12.7373 51.4835 12.7373V12.7373Z" fill="url(#paint7_radial_996_100132)"/>
<path d="M32.0007 36.7613C23.9007 36.7613 17.334 41.5333 17.334 46.452V52.9653C17.334 53.9053 18.0953 54.6666 19.0353 54.6666H45.334C46.07 54.6666 46.6673 54.0693 46.6673 53.3333V46.452C46.6673 41.5346 40.1006 36.7613 32.0007 36.7613H32.0007Z" fill="url(#paint8_linear_996_100132)"/>
<path d="M36 38.1333C36 39.6506 34.4 41.3333 32 41.3333C29.6 41.3333 28 39.6506 28 38.1333C28 36.024 28 32.5053 28 32.5053H36C36 32.5053 36 36.024 36 38.1333Z" fill="#D6A121"/>
<path d="M31.9796 15.7026C28.0649 15.7026 24.0449 16.2973 24.0449 24.7613C24.0449 25.4386 24.0449 29.9426 24.0449 30.6666C24.0449 33.688 28.8063 37.3906 31.9796 37.3906C35.1529 37.3906 39.9142 33.688 39.9142 30.6666C39.9142 29.9426 39.9142 25.44 39.9142 24.7613C39.9142 16.2973 35.8956 15.7026 31.9796 15.7026Z" fill="url(#paint9_radial_996_100132)"/>
<path d="M31.9801 14.948C28.1414 14.948 27.5721 16.3907 27.5721 16.3907C26.0121 16.6213 23.1641 18.9067 23.1641 21.52C23.1641 22.9787 23.3974 24.056 24.0454 27.6907C24.5254 21.92 26.0281 19.756 27.5721 19.756C28.6894 19.756 29.5761 20.6373 31.9801 20.6373C34.0107 20.6373 34.5147 19.756 36.3881 19.756C39.0334 19.756 39.9147 26.7813 39.9147 27.6907C40.4441 25.0373 40.7961 22.7933 40.7961 21.52C40.7961 18.4973 37.4547 14.948 31.9801 14.948Z" fill="url(#paint10_radial_996_100132)"/>
<path d="M32.1729 14.468C28.5023 14.468 27.5743 16.392 27.5743 16.392C27.5369 17.4133 28.0343 18.316 28.0343 18.316C28.0343 18.316 28.7049 19.7586 32.5303 19.7586C34.8396 19.7586 38.1503 18.3173 38.1503 14.4693C38.1516 14.468 37.4076 14.468 32.1729 14.468V14.468Z" fill="url(#paint11_radial_996_100132)"/>
<defs>
<linearGradient id="paint0_linear_996_100132" x1="9.30933" y1="31.652" x2="13.9613" y2="47.652" gradientUnits="userSpaceOnUse">
<stop stop-color="#0D61A9"/>
<stop offset="1" stop-color="#16528C"/>
</linearGradient>
<radialGradient id="paint1_radial_996_100132" cx="0" cy="0" r="1" gradientUnits="userSpaceOnUse" gradientTransform="translate(12.6493 23.1692) scale(8.20593 8.20593)">
<stop stop-color="#FFCF54"/>
<stop offset="0.261" stop-color="#FDCB4D"/>
<stop offset="0.639" stop-color="#F7C13A"/>
<stop offset="1" stop-color="#F0B421"/>
</radialGradient>
<radialGradient id="paint2_radial_996_100132" cx="0" cy="0" r="1" gradientUnits="userSpaceOnUse" gradientTransform="translate(6.13444 14.0041) scale(19.4093 19.4093)">
<stop stop-color="#C26715"/>
<stop offset="0.508" stop-color="#B85515"/>
<stop offset="1" stop-color="#AD3F16"/>
</radialGradient>
<radialGradient id="paint3_radial_996_100132" cx="0" cy="0" r="1" gradientUnits="userSpaceOnUse" gradientTransform="translate(11.5578 15.3042) scale(21.4395 21.4395)">
<stop stop-color="#C26715"/>
<stop offset="0.508" stop-color="#B85515"/>
<stop offset="1" stop-color="#AD3F16"/>
</radialGradient>
<linearGradient id="paint4_linear_996_100132" x1="47.9767" y1="31.652" x2="52.6274" y2="47.652" gradientUnits="userSpaceOnUse">
<stop stop-color="#0D61A9"/>
<stop offset="1" stop-color="#16528C"/>
</linearGradient>
<radialGradient id="paint5_radial_996_100132" cx="0" cy="0" r="1" gradientUnits="userSpaceOnUse" gradientTransform="translate(51.3175 23.1692) scale(8.20593 8.20593)">
<stop stop-color="#FFCF54"/>
<stop offset="0.261" stop-color="#FDCB4D"/>
<stop offset="0.639" stop-color="#F7C13A"/>
<stop offset="1" stop-color="#F0B421"/>
</radialGradient>
<radialGradient id="paint6_radial_996_100132" cx="0" cy="0" r="1" gradientUnits="userSpaceOnUse" gradientTransform="translate(44.8027 14.0041) scale(19.4093 19.4093)">
<stop stop-color="#C26715"/>
<stop offset="0.508" stop-color="#B85515"/>
<stop offset="1" stop-color="#AD3F16"/>
</radialGradient>
<radialGradient id="paint7_radial_996_100132" cx="0" cy="0" r="1" gradientUnits="userSpaceOnUse" gradientTransform="translate(50.2259 15.3042) scale(21.4395 21.4395)">
<stop stop-color="#C26715"/>
<stop offset="0.508" stop-color="#B85515"/>
<stop offset="1" stop-color="#AD3F16"/>
</radialGradient>
<linearGradient id="paint8_linear_996_100132" x1="28.2033" y1="36.3626" x2="33.4433" y2="54.3853" gradientUnits="userSpaceOnUse">
<stop stop-color="#33BEF0"/>
<stop offset="1" stop-color="#0A85D9"/>
</linearGradient>
<radialGradient id="paint9_radial_996_100132" cx="0" cy="0" r="1" gradientUnits="userSpaceOnUse" gradientTransform="translate(31.9798 26.5463) scale(9.50129 9.5013)">
<stop stop-color="#FFCF54"/>
<stop offset="0.261" stop-color="#FDCB4D"/>
<stop offset="0.639" stop-color="#F7C13A"/>
<stop offset="1" stop-color="#F0B421"/>
</radialGradient>
<radialGradient id="paint10_radial_996_100132" cx="0" cy="0" r="1" gradientUnits="userSpaceOnUse" gradientTransform="translate(24.4374 15.9354) scale(22.4738 22.4737)">
<stop stop-color="#C26715"/>
<stop offset="0.508" stop-color="#B85515"/>
<stop offset="1" stop-color="#AD3F16"/>
</radialGradient>
<radialGradient id="paint11_radial_996_100132" cx="0" cy="0" r="1" gradientUnits="userSpaceOnUse" gradientTransform="translate(30.7153 17.44) scale(24.8242 24.8242)">
<stop stop-color="#C26715"/>
<stop offset="0.508" stop-color="#B85515"/>
<stop offset="1" stop-color="#AD3F16"/>
</radialGradient>
</defs>
</svg>
