<svg width="21" height="20" viewBox="0 0 21 20" fill="none" xmlns="http://www.w3.org/2000/svg">
<path d="M10.5 2.5C8.66892 2.5 7.16667 4.00225 7.16667 5.83333C7.16667 7.66441 8.66892 9.16667 10.5 9.16667C12.3311 9.16667 13.8333 7.66441 13.8333 5.83333C13.8333 4.00225 12.3311 2.5 10.5 2.5ZM10.5 4.16667C11.4303 4.16667 12.1667 4.90299 12.1667 5.83333C12.1667 6.76368 11.4303 7.5 10.5 7.5C9.56966 7.5 8.83334 6.76368 8.83334 5.83333C8.83334 4.90299 9.56966 4.16667 10.5 4.16667ZM10.5 11.6667C9.04588 11.6667 7.32264 12.0082 5.87435 12.5798C5.15021 12.8656 4.49558 13.205 3.97168 13.641C3.44778 14.0769 3 14.6662 3 15.4167V17.5H18V16.6667V15.4167C18 14.6662 17.5522 14.0769 17.0283 13.641C16.5044 13.205 15.8498 12.8656 15.1257 12.5798C13.6774 12.0082 11.9541 11.6667 10.5 11.6667H10.5ZM10.5 13.3333C11.6784 13.3333 13.2884 13.645 14.5153 14.1292C15.1288 14.3713 15.6475 14.66 15.9622 14.9219C16.277 15.1838 16.3333 15.3622 16.3333 15.4167V15.8333H4.66667V15.4167C4.66667 15.3622 4.72299 15.1838 5.03776 14.9219C5.35253 14.66 5.87124 14.3713 6.4847 14.1292C7.71162 13.645 9.32163 13.3333 10.5 13.3333Z" fill="white"/>
</svg>
