<svg width="18" height="20" viewBox="0 0 18 20" fill="none" xmlns="http://www.w3.org/2000/svg">
<path d="M16.1035 0.00394085C15.9573 -0.00467124 15.8086 0.00328918 15.6582 0.029332H15.6563L1.65625 2.47074C0.705318 2.63691 0 3.47569 0 4.43949V15.5606C0 16.5244 0.705318 17.3632 1.65625 17.5293L15.6563 19.9707H15.6582C16.861 20.1791 18 19.2222 18 18V2.00003C18 0.930625 17.1273 0.0642282 16.1035 0.00393939V0.00394085ZM15.998 2.00003H16V9.00004H9V3.21879L15.998 2.00003ZM7 3.56839V9.00004H2V4.43949L7 3.56839ZM2 11H7V16.4317L2 15.5606V11ZM9 11H16V18H15.998L9 16.7813V11Z" fill="#637381"/>
</svg>
