<svg width="24" height="16" viewBox="0 0 24 16" fill="none" xmlns="http://www.w3.org/2000/svg">
<path d="M19.355 6.036C18.674 2.595 15.641 0 12 0C9.108 0 6.603 1.639 5.352 4.036C2.343 4.36 0 6.906 0 10C0 13.314 2.686 16 6 16H19C21.761 16 24 13.761 24 11C24 8.36 21.948 6.221 19.355 6.036V6.036ZM19 14H6C3.794 14 2 12.206 2 10C2 7.952 3.533 6.243 5.565 6.025L6.629 5.91L7.124 4.961C8.078 3.135 9.947 2 12 2C14.617 2 16.885 3.861 17.393 6.424L17.69 7.922L19.213 8.031C20.776 8.142 22 9.447 22 11C22 12.654 20.654 14 19 14L19 14Z" fill="#3366FF"/>
</svg>
