<svg width="20" height="19" viewBox="0 0 20 19" fill="none" xmlns="http://www.w3.org/2000/svg">
<path d="M17.0005 13C16.2149 13.0006 15.4609 13.3094 14.9005 13.86L7.00052 10.34V10V9.67L14.9005 6.14C15.9208 7.14004 17.5047 7.2819 18.6864 6.47907C19.8681 5.67623 20.3198 4.15146 19.7659 2.83456C19.2121 1.51765 17.8064 0.773983 16.4061 1.05705C15.0058 1.34011 13.9994 2.57137 14.0005 4V4.34L6.10052 7.86C4.92356 6.70367 3.03373 6.71482 1.87048 7.88494C0.707235 9.05507 0.707235 10.9449 1.87048 12.1151C3.03373 13.2852 4.92356 13.2963 6.10052 12.14L14.0005 15.67V16C14.0005 17.6569 15.3437 19 17.0005 19C18.6574 19 20.0005 17.6569 20.0005 16C20.0005 14.3431 18.6574 13 17.0005 13Z" fill="#637381"/>
</svg>
