<svg width="20" height="20" viewBox="0 0 20 20" fill="none" xmlns="http://www.w3.org/2000/svg">
<path d="M10 0C4.489 0 0 4.489 0 10C0 15.511 4.489 20 10 20C15.511 20 20 15.511 20 10C20 4.489 15.511 0 10 0ZM10 2C14.4301 2 18 5.56988 18 10C18 14.4301 14.4301 18 10 18C5.56988 18 2 14.4301 2 10C2 5.56988 5.56988 2 10 2ZM6 9C5.44772 9 5 9.44772 5 10C5 10.5523 5.44772 11 6 11C6.55229 11 7 10.5523 7 10C7 9.44772 6.55229 9 6 9ZM10 9C9.44772 9 9 9.44772 9 10C9 10.5523 9.44772 11 10 11C10.5523 11 11 10.5523 11 10C11 9.44772 10.5523 9 10 9ZM14 9C13.4477 9 13 9.44772 13 10C13 10.5523 13.4477 11 14 11C14.5523 11 15 10.5523 15 10C15 9.44772 14.5523 9 14 9Z" fill="#637381"/>
</svg>
