<svg width="30" height="40" viewBox="0 0 30 40" fill="none" xmlns="http://www.w3.org/2000/svg">
<path fill-rule="evenodd" clip-rule="evenodd" d="M30 0H0V40L15 31.619L30 40V0ZM15.9511 8.92705C15.6517 8.00574 14.3483 8.00574 14.0489 8.92705L12.7549 12.9098C12.621 13.3219 12.237 13.6008 11.8038 13.6008H7.61606C6.64734 13.6008 6.24456 14.8404 7.02827 15.4098L10.4162 17.8713C10.7667 18.126 10.9134 18.5773 10.7795 18.9894L9.48542 22.9721C9.18607 23.8934 10.2405 24.6596 11.0243 24.0902L14.4122 21.6287C14.7627 21.374 15.2373 21.374 15.5878 21.6287L18.9757 24.0902C19.7595 24.6596 20.8139 23.8934 20.5146 22.9721L19.2205 18.9894C19.0866 18.5773 19.2333 18.126 19.5838 17.8713L22.9717 15.4098C23.7554 14.8404 23.3527 13.6008 22.3839 13.6008H18.1962C17.763 13.6008 17.379 13.3219 17.2451 12.9098L15.9511 8.92705Z" fill="#FFCF54"/>
</svg>
