<svg width="16" height="17" viewBox="0 0 16 17" fill="none" xmlns="http://www.w3.org/2000/svg">
<path d="M13.6493 3.34999C12.0193 1.71999 9.70929 0.779992 7.16929 1.03999C3.49929 1.40999 0.479289 4.38999 0.0692889 8.05999C-0.480711 12.91 3.26929 17 7.99929 17C11.1893 17 13.9293 15.13 15.2093 12.44C15.5293 11.77 15.0493 11 14.3093 11C13.9393 11 13.5893 11.2 13.4293 11.53C12.2993 13.96 9.58929 15.5 6.62929 14.84C4.40929 14.35 2.61929 12.54 2.14929 10.32C1.30929 6.43999 4.25929 2.99999 7.99929 2.99999C9.65929 2.99999 11.1393 3.68999 12.2193 4.77999L10.7093 6.28999C10.0793 6.91999 10.5193 7.99999 11.4093 7.99999H14.9993C15.5493 7.99999 15.9993 7.54999 15.9993 6.99999V3.40999C15.9993 2.51999 14.9193 2.06999 14.2893 2.69999L13.6493 3.34999Z" fill="#3366FF"/>
</svg>
