<svg width="16" height="22" viewBox="0 0 16 22" fill="none" xmlns="http://www.w3.org/2000/svg">
<path d="M8 0C4.67619 0 2 2.67619 2 6V8.7207C0.758539 10.1302 0 11.9742 0 14C0 18.418 3.582 22 8 22C12.418 22 16 18.418 16 14C16 11.9742 15.2415 10.1302 14 8.7207V6C14 2.67619 11.3238 0 8 0ZM8 2C10.2762 2 12 3.72381 12 6V7.08008C10.8221 6.39748 9.45923 6 8 6C6.54077 6 5.17788 6.39748 4 7.08008V6C4 3.72381 5.72381 2 8 2ZM8 8C11.314 8 14 10.686 14 14C14 17.314 11.314 20 8 20C4.686 20 2 17.314 2 14C2 10.686 4.686 8 8 8ZM8 11C6.9 11 6 11.9 6 13C6 13.735 6.406 14.3727 7 14.7207V18H9V14.7207C9.594 14.3727 10 13.735 10 13C10 11.9 9.1 11 8 11H8Z" fill="#637381"/>
</svg>
